<?xml version="1.0" encoding="UTF-8" standalone="no"?>
<!-- Created with Inkscape (http://www.inkscape.org/) -->

<svg
   width="438.52014"
   height="375.95428"
   viewBox="0 0 438.52014 375.95428"
   version="1.1"
   id="svg1"
   xml:space="preserve"
   inkscape:version="1.3.2 (091e20e, 2023-11-25, custom)"
   sodipodi:docname="logos.svg"
   inkscape:export-filename="Graphics\calificapp-logo-color.svg"
   inkscape:export-xdpi="96"
   inkscape:export-ydpi="96"
   xmlns:inkscape="http://www.inkscape.org/namespaces/inkscape"
   xmlns:sodipodi="http://sodipodi.sourceforge.net/DTD/sodipodi-0.dtd"
   xmlns="http://www.w3.org/2000/svg"
   xmlns:svg="http://www.w3.org/2000/svg"><sodipodi:namedview
     id="namedview1"
     pagecolor="#ffffff"
     bordercolor="#111111"
     borderopacity="1"
     inkscape:showpageshadow="false"
     inkscape:pageopacity="0"
     inkscape:pagecheckerboard="false"
     inkscape:deskcolor="#d1d1d1"
     inkscape:document-units="px"
     showgrid="false"
     inkscape:zoom="0.80178887"
     inkscape:cx="319.90965"
     inkscape:cy="373.53973"
     inkscape:window-width="1366"
     inkscape:window-height="705"
     inkscape:window-x="-8"
     inkscape:window-y="-8"
     inkscape:window-maximized="1"
     inkscape:current-layer="g117"
     showborder="true"
     inkscape:lockguides="true"
     showguides="true"><inkscape:grid
       id="grid1"
       units="px"
       originx="-36.739929"
       originy="-88.045713"
       spacingx="8"
       spacingy="8"
       empcolor="#0099e5"
       empopacity="0.30196078"
       color="#0099e5"
       opacity="0.14901961"
       empspacing="4"
       dotted="false"
       gridanglex="30"
       gridanglez="30"
       visible="false" /></sodipodi:namedview><defs
     id="defs1"><linearGradient
       id="swatch26"
       inkscape:swatch="solid"
       inkscape:label="Text Light"><stop
         style="stop-color:#c2c8c1;stop-opacity:1;"
         offset="0"
         id="stop26" /></linearGradient><linearGradient
       id="swatch24"
       inkscape:swatch="solid"
       inkscape:label="Text Dark"><stop
         style="stop-color:#79877e;stop-opacity:1;"
         offset="0"
         id="stop24" /></linearGradient><linearGradient
       id="swatch22"
       inkscape:swatch="solid"
       inkscape:label="Accent Dark"
       inkscape:pinned="true"><stop
         style="stop-color:#8db934;stop-opacity:1;"
         offset="0"
         id="stop22" /></linearGradient><linearGradient
       id="swatch20"
       inkscape:swatch="solid"
       inkscape:label="Light"><stop
         style="stop-color:#f4f3f3;stop-opacity:1;"
         offset="0"
         id="stop20" /></linearGradient><linearGradient
       id="swatch18"
       inkscape:swatch="solid"
       inkscape:label="Dark"><stop
         style="stop-color:#232725;stop-opacity:1;"
         offset="0"
         id="stop18" /></linearGradient><linearGradient
       id="swatch17"
       inkscape:swatch="solid"
       inkscape:label="Accent Light"><stop
         style="stop-color:#bedb70;stop-opacity:1;"
         offset="0"
         id="stop17" /></linearGradient></defs><g
     id="g70"
     inkscape:label="Final"
     transform="translate(-140.73993,-192.04572)"><g
       id="g118"
       inkscape:label="Logos"
       style="display:inline"><g
         inkscape:label="Imagotype"
         inkscape:groupmode="layer"
         id="g117"
         style="display:inline"
         transform="translate(104,104)"
         inkscape:export-filename="Graphics\Logo_Construction.svg"
         inkscape:export-xdpi="96"
         inkscape:export-ydpi="96"><path
           id="path106"
           style="display:inline;fill:#f1f1ee;fill-opacity:1;stroke-width:1.60016"
           d="m 295.97713,192.04572 c -13.25615,0 -24.00195,12.53651 -24.00195,28.00195 0,15.46549 10.7458,28.00391 24.00195,28.00391 13.25599,0 24.00195,-12.53842 24.00195,-28.00391 0,-15.46544 -10.74596,-28.00195 -24.00195,-28.00195 z m 128,0 c -13.25599,0 -24.00195,12.53651 -24.00195,28.00195 0,15.46549 10.74596,28.00391 24.00195,28.00391 13.25615,0 24.00195,-12.53842 24.00195,-28.00391 0,-15.46544 -10.7458,-28.00195 -24.00195,-28.00195 z m -200.00781,92.00977 c -6.62805,0 -12,5.37199 -12,12 0,3.69539 1.67023,6.99968 4.29687,9.20117 0.003,0.0589 0.006,0.11911 0.01,0.17773 h 0.20703 c 2.05281,1.64144 4.65549,2.62305 7.48828,2.62305 h 5.04297 v 0.01 c 2.02628,0.0442 3.68049,1.59456 3.88867,3.57618 h 0.006 c 6.38363,52.59238 43.54336,95.04989 93.79297,108.05273 6.38445,1.67856 12.93201,-2.117 14.64258,-8.5 1.71536,-6.40222 -2.08608,-12.9858 -8.48828,-14.70117 -42.06051,-11.33228 -73.63249,-49.34614 -76.69727,-94.20899 -0.96713,-9.97424 -9.27866,-17.98635 -19.44922,-18.22461 v -0.006 z m 259.27539,0 v 0.006 c -10.17056,0.23826 -18.48209,8.25037 -19.44922,18.22461 -3.06478,44.86285 -34.63676,82.87671 -76.69727,94.20899 -6.4022,1.71537 -10.20364,8.29895 -8.48828,14.70117 1.71057,6.383 8.25813,10.17856 14.64258,8.5 50.24961,-13.00284 87.40934,-55.4623 93.79297,-108.05469 h 0.006 c 0.20818,-1.98161 1.86239,-3.53002 3.88867,-3.57422 v -0.01 h 5.04297 c 2.83279,0 5.43547,-0.98161 7.48828,-2.62305 h 0.20703 c 0.004,-0.0586 0.007,-0.11883 0.01,-0.17773 2.62664,-2.20149 4.29687,-5.50578 4.29687,-9.20117 0,-6.62801 -5.37195,-12 -12,-12 z"
           inkscape:export-filename="..\Estrecho\calificapp-imago-mono-light.svg"
           inkscape:export-xdpi="192"
           inkscape:export-ydpi="192"
           transform="translate(-104,-104)" /><path
           d="m 69.651935,447.80801 q -9.328,0 -16.896,-4.048 -7.48,-4.136 -11.792,-11.352 -4.224,-7.216 -4.224,-16.28 0,-9.064 4.312,-16.28 4.312,-7.216 11.792,-11.264 7.568,-4.136 16.896,-4.136 7.568,0 13.816,2.64 6.248,2.64 10.56,7.656 l -7.392,6.952 q -6.688,-7.216 -16.456,-7.216 -6.336,0 -11.352,2.816 -5.016,2.728 -7.832,7.656 -2.816,4.928 -2.816,11.176 0,6.248 2.816,11.176 2.816,4.928 7.832,7.744 5.016,2.728 11.352,2.728 9.768,0 16.456,-7.304 l 7.392,7.04 q -4.312,5.016 -10.648,7.656 -6.248,2.64 -13.816,2.64 z m 75.583895,-47.872 v 46.992 h -10.472 v -6.072 q -2.728,3.344 -6.776,5.016 -3.96,1.672 -8.8,1.672 -6.864,0 -12.32,-2.992 -5.368,-2.992 -8.447998,-8.448 -2.992,-5.456 -2.992,-12.672 0,-7.216 2.992,-12.584 3.079998,-5.456 8.447998,-8.448 5.456,-2.992 12.32,-2.992 4.576,0 8.36,1.584 3.872,1.584 6.688,4.664 v -5.72 z m -24.816,38.192 q 6.072,0 10.032,-4.048 3.96,-4.048 3.96,-10.648 0,-6.6 -3.96,-10.648 -3.96,-4.048 -10.032,-4.048 -6.072,0 -10.032,4.048 -3.872,4.048 -3.872,10.648 0,6.6 3.872,10.648 3.96,4.048 10.032,4.048 z m 51.73607,9.416 q -7.304,0 -11.44,-3.96 -4.048,-4.048 -4.048,-11.352 v -50.6 h 11 v 49.808 q 0,7.04 6.6,7.04 2.2,0 3.96,-0.88 l 0.528,8.8 q -3.08,1.144 -6.6,1.144 z m 11.08004,-47.608 h 11 v 46.992 h -11 z m 5.544,-7.744 q -2.992,0 -5.016,-1.848 -2.024,-1.936 -2.024,-4.752 0,-2.816 2.024,-4.664 2.024,-1.936 5.016,-1.936 2.992,0 5.016,1.848 2.024,1.76 2.024,4.488 0,2.904 -2.024,4.928 -1.936,1.936 -5.016,1.936 z m 34.57596,-2.288 q -6.952,0 -6.952,7.568 v 2.816 h 12.936 v 8.8 h -12.672 v 37.84 h -11 v -49.632 q 0,-7.48 4.4,-11.88 4.4,-4.4 12.496,-4.4 6.248,0 9.856,2.552 l -3.08,8.272 q -2.64,-1.936 -5.984,-1.936 z m 17.41605,10.032 h 11 v 46.992 h -11 z m 5.544,-7.744 q -2.992,0 -5.016,-1.848 -2.024,-1.936 -2.024,-4.752 0,-2.816 2.024,-4.664 2.024,-1.936 5.016,-1.936 2.992,0 5.016,1.848 2.024,1.76 2.024,4.488 0,2.904 -2.024,4.928 -1.936,1.936 -5.016,1.936 z m 38.44797,55.352 q -7.304,0 -13.112,-3.08 -5.808,-3.08 -9.064,-8.536 -3.256,-5.544 -3.256,-12.496 0,-6.952 3.256,-12.408 3.256,-5.456 8.976,-8.536 5.808,-3.08 13.2,-3.08 6.952,0 12.144,2.816 5.28,2.816 7.92,8.096 l -8.448,4.928 q -2.024,-3.256 -5.104,-4.84 -2.992,-1.672 -6.6,-1.672 -6.16,0 -10.208,4.048 -4.048,3.96 -4.048,10.648 0,6.688 3.96,10.736 4.048,3.96 10.296,3.96 3.608,0 6.6,-1.584 3.08,-1.672 5.104,-4.928 l 8.448,4.928 q -2.728,5.28 -8.008,8.184 -5.192,2.816 -12.056,2.816 z m 71.79999,-47.608 v 46.992 h -10.472 v -6.072 q -2.728,3.344 -6.776,5.016 -3.96,1.672 -8.8,1.672 -6.864,0 -12.32,-2.992 -5.368,-2.992 -8.448,-8.448 -2.992,-5.456 -2.992,-12.672 0,-7.216 2.992,-12.584 3.08,-5.456 8.448,-8.448 5.456,-2.992 12.32,-2.992 4.576,0 8.36,1.584 3.872,1.584 6.688,4.664 v -5.72 z m -24.816,38.192 q 6.072,0 10.032,-4.048 3.96,-4.048 3.96,-10.648 0,-6.6 -3.96,-10.648 -3.96,-4.048 -10.032,-4.048 -6.072,0 -10.032,4.048 -3.872,4.048 -3.872,10.648 0,6.6 3.872,10.648 3.96,4.048 10.032,4.048 z m 62.29607,-38.72 q 6.864,0 12.232,2.992 5.456,2.992 8.536,8.448 3.08,5.456 3.08,12.584 0,7.128 -3.08,12.672 -3.08,5.456 -8.536,8.448 -5.368,2.992 -12.232,2.992 -9.504,0 -15.048,-6.336 v 22.792 h -11 v -64.064 h 10.472 v 6.16 q 2.728,-3.344 6.688,-5.016 4.048,-1.672 8.888,-1.672 z m -1.232,38.72 q 6.072,0 9.944,-4.048 3.96,-4.048 3.96,-10.648 0,-6.6 -3.96,-10.648 -3.872,-4.048 -9.944,-4.048 -3.96,0 -7.128,1.848 -3.168,1.76 -5.016,5.104 -1.848,3.344 -1.848,7.744 0,4.4 1.848,7.744 1.848,3.344 5.016,5.192 3.168,1.76 7.128,1.76 z m 58.60008,-38.72 q 6.864,0 12.232,2.992 5.456,2.992 8.536,8.448 3.08,5.456 3.08,12.584 0,7.128 -3.08,12.672 -3.08,5.456 -8.536,8.448 -5.368,2.992 -12.232,2.992 -9.504,0 -15.048,-6.336 v 22.792 h -11 v -64.064 h 10.472 v 6.16 q 2.728,-3.344 6.688,-5.016 4.048,-1.672 8.888,-1.672 z m -1.232,38.72 q 6.072,0 9.944,-4.048 3.96,-4.048 3.96,-10.648 0,-6.6 -3.96,-10.648 -3.872,-4.048 -9.944,-4.048 -3.96,0 -7.128,1.848 -3.168,1.76 -5.016,5.104 -1.848,3.344 -1.848,7.744 0,4.4 1.848,7.744 1.848,3.344 5.016,5.192 3.168,1.76 7.128,1.76 z"
           id="text106"
           style="font-weight:600;font-size:88px;line-height:0;font-family:'Montserrat Alternates';-inkscape-font-specification:'Montserrat Alternates, Semi-Bold';font-variant-ligatures:no-common-ligatures;text-align:center;letter-spacing:-3px;text-anchor:middle;fill:#f1f1ee;fill-opacity:1;stroke-linecap:round;stroke-linejoin:round;paint-order:fill markers stroke"
           aria-label="Calificapp"
           inkscape:export-filename="..\Estrecho\calificapp-imago-color-light.svg"
           inkscape:export-xdpi="192"
           inkscape:export-ydpi="192" /></g></g></g></svg>
